<?xml version="1.0" standalone="no"?>
<!DOCTYPE svg PUBLIC "-//W3C//DTD SVG 20010904//EN"
 "http://www.w3.org/TR/2001/REC-SVG-20010904/DTD/svg10.dtd">
<svg version="1.0" xmlns="http://www.w3.org/2000/svg"
 width="381.000000pt" height="381.000000pt" viewBox="0 0 381.000000 381.000000"
 preserveAspectRatio="xMidYMid meet">
<metadata>
Created by potrace 1.11, written by Peter Selinger 2001-2013
</metadata>
<g transform="translate(0.000000,381.000000) scale(0.100000,-0.100000)"
fill="#000000" stroke="none">
<path d="M1730 3760 c-180 -23 -225 -33 -365 -77 -182 -56 -475 -203 -475
-237 0 -13 486 -503 515 -519 21 -11 19 -27 -4 -27 -16 0 -131 51 -181 80 -8
5 -40 21 -70 36 -30 14 -154 75 -275 135 -121 60 -227 109 -234 109 -18 0
-142 -121 -206 -200 -96 -121 -183 -269 -266 -455 -23 -52 -64 -183 -80 -255
-6 -25 -14 -59 -19 -75 -16 -51 -31 -223 -31 -355 0 -228 26 -411 66 -460 7
-8 16 -32 19 -54 23 -124 129 -375 213 -504 120 -184 291 -368 448 -484 50
-37 105 -81 122 -98 18 -17 54 -43 80 -57 114 -61 179 -93 190 -93 6 0 24 -6
40 -14 55 -27 104 -46 121 -46 9 0 30 -7 47 -16 16 -8 50 -17 75 -20 25 -3 62
-12 83 -20 20 -8 63 -14 95 -14 31 0 93 -7 137 -15 95 -17 236 -19 285 -5 19
6 83 15 143 19 59 5 113 14 120 19 7 6 33 14 57 18 24 4 55 13 69 21 14 7 35
13 47 13 11 0 29 7 40 15 10 8 28 15 39 15 11 0 29 6 40 13 11 7 47 23 80 36
33 13 67 30 75 37 8 7 27 16 43 19 15 4 27 10 27 14 0 4 12 12 28 19 134 60
411 298 537 462 96 125 144 201 199 315 32 66 65 132 72 147 8 14 14 32 14 40
1 7 9 31 20 53 11 22 20 51 20 65 0 14 7 34 15 44 8 11 15 35 15 53 0 18 8 52
18 75 15 38 17 82 17 373 0 295 -2 333 -17 362 -10 18 -18 47 -18 65 0 18 -8
49 -18 68 -10 19 -29 64 -41 100 -13 36 -27 74 -31 85 -40 97 -65 144 -88 164
-27 23 -30 23 -183 18 -86 -3 -166 -10 -177 -16 -13 -7 -97 -11 -231 -11
l-211 0 0 38 c0 21 5 43 12 50 15 15 28 442 15 491 -9 33 -9 33 -59 29 -28 -3
-54 -11 -58 -17 -4 -7 -26 -15 -49 -18 -25 -4 -41 -11 -41 -19 0 -10 -13 -14
-40 -14 -26 0 -43 -5 -46 -14 -3 -8 -24 -18 -45 -21 -22 -4 -43 -13 -46 -21
-3 -8 -19 -14 -39 -14 -18 0 -37 -6 -41 -13 -4 -8 -26 -17 -47 -20 -22 -4 -42
-11 -46 -17 -4 -7 -26 -14 -49 -17 -24 -3 -45 -12 -48 -19 -6 -16 -73 -19 -73
-4 0 6 -11 10 -24 10 -14 0 -28 -4 -31 -10 -3 -5 0 -10 8 -10 8 0 20 -7 27
-15 11 -13 7 -15 -28 -15 -23 0 -44 5 -47 10 -8 13 -52 13 -60 1 -3 -5 7 -11
22 -13 40 -4 37 -32 -4 -36 -19 -2 -33 1 -33 7 0 6 -11 11 -25 11 -30 0 -33
-16 -5 -23 37 -10 21 -27 -25 -27 -25 0 -45 5 -45 10 0 6 -11 10 -24 10 -14 0
-28 -4 -31 -10 -4 -6 7 -10 24 -10 48 0 40 -28 -10 -36 -22 -4 -43 -13 -46
-20 -3 -8 -20 -14 -39 -14 -20 0 -37 -6 -40 -14 -3 -8 -19 -16 -35 -20 -17 -3
-37 -13 -45 -21 -17 -17 -44 -20 -44 -5 0 5 9 14 20 20 11 6 20 21 20 34 0 13
7 29 15 36 8 7 15 28 15 47 0 20 6 36 14 39 8 3 17 23 21 44 4 21 13 44 21 51
8 6 14 26 14 44 0 18 6 35 14 38 7 3 16 21 19 41 3 20 13 43 21 52 9 8 16 27
16 42 0 15 7 36 15 46 8 11 15 32 15 47 0 14 7 32 15 39 8 7 15 23 15 35 0 12
9 34 20 48 11 14 20 38 20 53 0 15 7 36 16 45 20 22 22 68 3 80 -16 10 -38 9
-119 -1z m-216 -1230 c8 -8 17 -51 21 -95 4 -44 14 -89 21 -100 9 -12 14 -46
14 -86 0 -47 4 -70 15 -79 10 -9 15 -32 15 -74 0 -37 7 -73 16 -91 9 -17 18
-66 21 -112 4 -61 9 -83 19 -83 11 0 14 -20 14 -85 0 -67 3 -87 15 -91 10 -4
15 -20 15 -45 l0 -39 -60 0 c-45 0 -62 -4 -66 -15 -4 -10 -20 -15 -49 -15 -28
0 -50 -7 -65 -20 -16 -13 -37 -20 -67 -20 -30 0 -45 -5 -49 -15 -4 -10 -20
-15 -49 -15 -24 0 -50 -6 -58 -14 -7 -8 -39 -17 -71 -21 -32 -4 -60 -13 -64
-22 -6 -10 -22 -13 -53 -11 l-44 3 23 20 c15 14 22 31 22 58 0 24 5 40 15 43
9 4 15 19 15 38 0 17 9 45 20 61 11 17 20 44 20 61 0 19 6 34 15 38 10 3 15
19 15 46 0 26 5 43 14 46 8 3 17 26 21 54 4 28 13 51 21 54 9 4 14 21 14 51 0
31 4 45 14 45 8 0 15 16 18 44 3 25 13 52 22 61 9 9 16 29 16 44 0 16 7 34 15
41 8 7 15 29 15 50 0 23 5 40 14 43 7 3 17 26 20 50 4 25 13 48 21 51 10 4 15
20 15 50 0 30 5 46 15 50 9 3 15 18 15 38 0 62 33 79 36 20 4 -74 22 -174 32
-184 9 -9 12 7 12 70 0 45 -4 82 -8 82 -13 0 -32 72 -32 120 0 27 7 51 18 63
16 18 17 16 20 -64 2 -52 8 -89 16 -99z"/>
<path d="M1425 2441 c-3 -5 -1 -12 5 -16 5 -3 10 1 10 9 0 18 -6 21 -15 7z"/>
<path d="M1390 2350 c0 -18 4 -29 10 -25 6 3 10 15 10 25 0 10 -4 22 -10 25
-6 4 -10 -7 -10 -25z"/>
<path d="M1512 2313 c-15 -27 -15 -64 -1 -100 l12 -28 8 34 c4 19 4 53 0 75
-7 39 -8 40 -19 19z"/>
<path d="M1360 2244 c0 -14 4 -23 10 -19 6 3 10 15 10 26 0 10 -4 19 -10 19
-5 0 -10 -12 -10 -26z"/>
<path d="M1320 2145 c0 -14 5 -25 10 -25 6 0 10 11 10 25 0 14 -4 25 -10 25
-5 0 -10 -11 -10 -25z"/>
<path d="M1544 2136 c-9 -25 1 -109 14 -114 9 -3 12 14 12 62 0 61 -13 87 -26
52z"/>
<path d="M1290 2039 c0 -17 4 -28 10 -24 6 3 10 17 10 31 0 13 -4 24 -10 24
-5 0 -10 -14 -10 -31z"/>
<path d="M1256 1956 c-8 -32 -1 -45 16 -28 8 8 8 18 1 34 -10 22 -10 22 -17
-6z"/>
<path d="M1575 1949 c-9 -27 3 -127 16 -134 5 -4 9 27 9 74 0 78 -11 104 -25
60z"/>
<path d="M1220 1860 c0 -19 3 -21 12 -12 9 9 9 15 0 24 -9 9 -12 7 -12 -12z"/>
<path d="M1611 1781 c-14 -25 -14 -56 0 -104 15 -56 29 -35 29 43 0 71 -11 95
-29 61z"/>
<path d="M1190 1754 c0 -8 5 -12 10 -9 6 4 8 11 5 16 -9 14 -15 11 -15 -7z"/>
<path d="M1150 1676 c0 -14 5 -26 10 -26 6 0 10 9 10 19 0 11 -4 23 -10 26 -6
4 -10 -5 -10 -19z"/>
<path d="M1621 1611 c-19 -12 -4 -31 25 -31 17 0 24 5 24 20 0 21 -24 27 -49
11z"/>
<path d="M1120 1570 c0 -18 4 -29 10 -25 6 3 10 15 10 25 0 10 -4 22 -10 25
-6 4 -10 -7 -10 -25z"/>
<path d="M1490 1566 c-11 -14 -7 -16 35 -16 33 0 45 4 43 13 -7 18 -63 21 -78
3z"/>
<path d="M1383 1543 c-27 -10 -11 -23 27 -23 40 0 53 13 24 24 -18 7 -33 7
-51 -1z"/>
<path d="M1263 1493 c9 -2 23 -2 30 0 6 3 -1 5 -18 5 -16 0 -22 -2 -12 -5z"/>
<path d="M1090 1470 c0 -11 5 -20 10 -20 6 0 10 9 10 20 0 11 -4 20 -10 20 -5
0 -10 -9 -10 -20z"/>
<path d="M1140 1465 c-11 -13 -7 -15 25 -15 32 0 36 2 25 15 -7 8 -18 15 -25
15 -7 0 -18 -7 -25 -15z"/>
<path d="M1895 3720 c4 -6 70 -10 165 -10 95 0 161 4 165 10 4 7 -53 10 -165
10 -112 0 -169 -3 -165 -10z"/>
<path d="M2343 3683 c9 -2 25 -2 35 0 9 3 1 5 -18 5 -19 0 -27 -2 -17 -5z"/>
<path d="M2415 3650 c3 -5 24 -10 46 -10 24 0 38 4 34 10 -3 6 -24 10 -46 10
-24 0 -38 -4 -34 -10z"/>
<path d="M2545 3620 c3 -5 15 -10 26 -10 11 0 17 5 14 10 -3 6 -15 10 -26 10
-11 0 -17 -4 -14 -10z"/>
<path d="M2638 3578 c9 -9 15 -9 24 0 9 9 7 12 -12 12 -19 0 -21 -3 -12 -12z"/>
<path d="M2705 3550 c3 -5 15 -10 26 -10 11 0 17 5 14 10 -3 6 -15 10 -26 10
-11 0 -17 -4 -14 -10z"/>
<path d="M2776 3523 c-3 -3 -3 -10 0 -14 7 -12 44 -12 44 0 0 10 -36 21 -44
14z"/>
<path d="M2840 3480 c0 -5 4 -10 9 -10 6 0 13 5 16 10 3 6 -1 10 -9 10 -9 0
-16 -4 -16 -10z"/>
<path d="M2885 3440 c-18 -19 -17 -20 2 -20 22 0 47 23 36 33 -10 11 -19 8
-38 -13z"/>
<path d="M2800 3396 c0 -10 9 -16 21 -16 24 0 21 23 -4 28 -10 2 -17 -3 -17
-12z"/>
<path d="M2635 3360 c-3 -5 3 -10 15 -10 12 0 18 5 15 10 -3 6 -10 10 -15 10
-5 0 -12 -4 -15 -10z"/>
<path d="M2542 3333 c-19 -8 -4 -23 24 -23 16 0 24 5 22 13 -5 13 -26 18 -46
10z"/>
<path d="M2465 3290 c-3 -5 3 -10 15 -10 12 0 18 5 15 10 -3 6 -10 10 -15 10
-5 0 -12 -4 -15 -10z"/>
<path d="M2851 3172 c-1 -73 3 -111 9 -107 6 3 10 39 10 80 0 41 5 77 10 80
15 9 12 25 -4 25 -8 0 -17 8 -19 18 -3 9 -5 -34 -6 -96z"/>
<path d="M2365 3260 c-3 -5 1 -10 10 -10 9 0 13 5 10 10 -3 6 -8 10 -10 10 -2
0 -7 -4 -10 -10z"/>
<path d="M2300 3220 c0 -5 5 -10 10 -10 6 0 10 5 10 10 0 6 -4 10 -10 10 -5 0
-10 -4 -10 -10z"/>
<path d="M2945 3210 c3 -5 8 -10 11 -10 2 0 4 5 4 10 0 6 -5 10 -11 10 -5 0
-7 -4 -4 -10z"/>
<path d="M2195 3190 c-4 -6 7 -10 25 -10 18 0 29 4 25 10 -3 6 -15 10 -25 10
-10 0 -22 -4 -25 -10z"/>
<path d="M2980 3180 c0 -5 5 -10 11 -10 5 0 7 5 4 10 -3 6 -8 10 -11 10 -2 0
-4 -4 -4 -10z"/>
<path d="M2130 3150 c0 -5 5 -10 10 -10 6 0 10 5 10 10 0 6 -4 10 -10 10 -5 0
-10 -4 -10 -10z"/>
<path d="M3045 3140 c3 -5 8 -10 11 -10 2 0 4 5 4 10 0 6 -5 10 -11 10 -5 0
-7 -4 -4 -10z"/>
<path d="M3110 3110 c0 -5 5 -10 10 -10 6 0 10 5 10 10 0 6 -4 10 -10 10 -5 0
-10 -4 -10 -10z"/>
<path d="M3150 3070 c20 -13 40 -13 40 0 0 6 -12 10 -27 10 -22 0 -25 -2 -13
-10z"/>
<path d="M3215 3040 c3 -5 8 -10 11 -10 2 0 4 5 4 10 0 6 -5 10 -11 10 -5 0
-7 -4 -4 -10z"/>
<path d="M3315 2970 c3 -5 15 -10 26 -10 10 0 19 5 19 10 0 6 -12 10 -26 10
-14 0 -23 -4 -19 -10z"/>
<path d="M1600 2950 c-12 -8 -9 -10 13 -10 15 0 27 5 27 10 0 13 -20 13 -40 0z"/>
<path d="M3385 2940 c3 -5 12 -10 20 -10 8 0 17 5 20 10 4 6 -5 10 -20 10 -15
0 -24 -4 -20 -10z"/>
<path d="M3447 2914 c-8 -8 1 -24 14 -24 5 0 9 7 9 15 0 15 -12 20 -23 9z"/>
<path d="M3488 2864 c-5 -4 -8 -16 -8 -26 0 -16 -6 -18 -69 -12 -71 7 -112 0
-95 -15 5 -5 47 -5 94 -1 47 4 89 3 95 -2 12 -11 25 -10 25 2 0 6 -6 10 -14
10 -8 0 -16 12 -18 26 -2 14 -6 22 -10 18z"/>
<path d="M2810 2780 c0 -6 27 -10 60 -10 33 0 60 4 60 10 0 6 -27 10 -60 10
-33 0 -60 -4 -60 -10z"/>
</g>
</svg>
